<?xml version="1.0" encoding="UTF-8"?>
<svg version="1.1" xmlns="http://www.w3.org/2000/svg" width="512" height="512">
<path d="M0 0 C1.17413397 -0.00453111 2.34826794 -0.00906223 3.55798173 -0.01373065 C6.80881536 -0.02418942 10.05950963 -0.02570243 13.31035471 -0.02334189 C16.81969182 -0.02293324 20.32899611 -0.03397753 23.83831787 -0.04345703 C30.71097658 -0.06005797 37.58360097 -0.06556618 44.45627806 -0.06668179 C50.04434587 -0.06763276 55.63240238 -0.07174552 61.22046661 -0.07808304 C77.07157501 -0.09569354 92.92265634 -0.10492229 108.77377459 -0.10342209 C109.62800967 -0.10334218 110.48224474 -0.10326227 111.36236572 -0.10317993 C112.64528713 -0.10305729 112.64528713 -0.10305729 113.95412615 -0.10293217 C127.8112685 -0.10211949 141.6683021 -0.1212532 155.52541301 -0.14945666 C169.76155522 -0.17820238 183.99764442 -0.19199601 198.23381639 -0.19026911 C206.22320286 -0.18960576 214.21247534 -0.19507398 222.20183563 -0.21662521 C229.00498624 -0.23485932 235.8079712 -0.23916618 242.61113569 -0.22560637 C246.07978865 -0.21908766 249.54812401 -0.21891919 253.01674652 -0.23631287 C256.78358258 -0.25175774 260.54958796 -0.24246058 264.31640625 -0.22705078 C265.94746421 -0.24248147 265.94746421 -0.24248147 267.61147285 -0.25822389 C276.91771437 -0.17426015 284.96455396 2.10467526 291.88092041 8.56430054 C299.55563523 17.10046294 300.70798322 25.48703516 300.53717041 36.64242554 C300.52814697 37.76004272 300.51912354 38.87765991 300.50982666 40.02914429 C300.48635387 42.77546016 300.45351769 45.52133026 300.41217041 48.26742554 C301.09153656 48.25854309 301.77090271 48.24966064 302.47085571 48.24050903 C309.57669617 48.15163874 316.68237731 48.09152689 323.78863525 48.04769897 C326.43648701 48.02765174 329.08429487 48.0004067 331.73199463 47.96566772 C335.54997629 47.9168481 339.36736977 47.89438673 343.18560791 47.87680054 C344.3589267 47.8561554 345.53224548 47.83551025 346.74111938 47.8142395 C356.45093328 47.8116212 364.64084918 49.80234721 371.88092041 56.56430054 C378.56104517 63.99423522 380.71544407 71.61892072 380.67959595 81.42556763 C380.68412706 82.33835425 380.68865817 83.25114087 380.69332659 84.19158769 C380.70597037 87.24523898 380.70435022 90.29871192 380.70269775 93.35238647 C380.70868305 95.54391713 380.7154886 97.73544567 380.72305298 99.92697144 C380.74072099 105.8775223 380.74540873 111.82801564 380.74668455 117.7785902 C380.74810636 121.49775732 380.75237656 125.21690982 380.75767899 128.9360733 C380.77522776 141.24558164 380.78451891 153.55505484 380.78301804 165.86457583 C380.78293813 166.52764319 380.78285821 167.19071054 380.78277588 167.87387085 C380.78269412 168.53775245 380.78261236 169.20163404 380.78252812 169.88563326 C380.78171564 180.63885643 380.80084513 191.39193939 380.82905261 202.14512202 C380.85781929 213.19915284 380.871225 224.25311198 380.86986506 235.30718064 C380.86935557 241.50806089 380.87503145 247.70878246 380.89622116 253.90962982 C380.9156138 259.7439147 380.91572071 265.57788974 380.9011879 271.41218567 C380.89909993 273.54947106 380.90379991 275.6867759 380.91590881 277.82402802 C380.93140901 280.75016294 380.92202137 283.67523584 380.90664673 286.60134888 C380.92207742 287.85887581 380.92207742 287.85887581 380.93781984 289.14180732 C380.83916308 297.6852623 377.98632577 305.45002182 372.11529541 311.73617554 C360.22394267 322.4274835 349.22089065 320.26742554 332.41217041 320.26742554 C332.41217041 341.38742554 332.41217041 362.50742554 332.41217041 384.26742554 C328.90792739 382.86572833 326.57399435 381.87161545 323.59552002 379.83847046 C322.87544769 379.35058548 322.15537537 378.8627005 321.41348267 378.36003113 C320.63832306 377.82802597 319.86316345 377.29602081 319.06451416 376.74789429 C318.23569733 376.18515305 317.40688049 375.6224118 316.552948 375.0426178 C314.75610948 373.82233549 312.96062731 372.60005414 311.16635132 371.37600708 C306.35715998 368.09595903 301.53738033 364.83157103 296.71685791 361.56820679 C295.71657059 360.89080444 294.71628326 360.2134021 293.6856842 359.51547241 C280.61491704 350.6790879 267.42203147 342.02785817 254.23028564 333.37362671 C252.88249527 332.48862236 252.88249527 332.48862236 251.50747681 331.58573914 C249.83102089 330.4852287 248.15376623 329.38593366 246.47555542 328.2881012 C245.7321994 327.80029678 244.98884338 327.31249237 244.22296143 326.80990601 C243.57988541 326.3888559 242.93680939 325.96780579 242.27424622 325.53399658 C240.41217041 324.26742554 240.41217041 324.26742554 238.7202692 322.71150303 C235.57523223 320.74378955 233.31887605 320.89384048 229.62051392 320.89561462 C228.93811508 320.89179006 228.25571624 320.8879655 227.55263865 320.88402504 C225.26651261 320.87474113 222.9809924 320.88673052 220.69488525 320.89852905 C219.0553665 320.896061 217.41584932 320.89222253 215.77633667 320.88711548 C212.24483363 320.87877415 208.71349182 320.87958809 205.18198776 320.88730049 C199.59202368 320.89888415 194.00226687 320.88671886 188.412323 320.87068176 C174.52292131 320.8344829 160.63352416 320.82825311 146.74407959 320.83078003 C135.9586177 320.8324932 125.17332514 320.82530228 114.38791049 320.79080147 C108.83759196 320.77404786 103.28768687 320.7757682 97.73737025 320.79162419 C94.27334274 320.79744345 90.80950887 320.78664048 87.3455162 320.77137756 C85.74683218 320.76766801 84.14811497 320.77071085 82.54946136 320.78124809 C70.10250995 320.85777863 61.29622202 319.00277028 51.41217041 311.26742554 C50.95307281 311.58062744 50.49397522 311.89382935 50.02096558 312.21652222 C45.25572222 315.46610443 40.48613192 318.70922646 35.71392822 321.94857788 C33.93187191 323.15947897 32.15094276 324.37204056 30.37115479 325.58627319 C27.81743932 327.32808915 25.25977198 329.06395538 22.70123291 330.79867554 C21.90222565 331.34552002 21.10321838 331.8923645 20.27999878 332.45578003 C19.16907364 333.20655823 19.16907364 333.20655823 18.03570557 333.97250366 C17.38284576 334.41662598 16.72998596 334.86074829 16.05734253 335.31832886 C14.41217041 336.26742554 14.41217041 336.26742554 12.41217041 336.26742554 C12.41217041 315.14742554 12.41217041 294.02742554 12.41217041 272.26742554 C4.49217041 272.26742554 -3.42782959 272.26742554 -11.58782959 272.26742554 C-22.27146851 267.99396997 -28.59383139 264.44246307 -33.58782959 254.26742554 C-35.70348922 249.10086094 -35.87531376 244.59654392 -35.85525513 239.10928345 C-35.8620518 237.74010352 -35.8620518 237.74010352 -35.86898577 236.34326339 C-35.88162955 233.28961209 -35.8800094 230.23613915 -35.87835693 227.1824646 C-35.88434223 224.99093395 -35.89114778 222.79940541 -35.89871216 220.60787964 C-35.91638017 214.65732877 -35.92106791 208.70683543 -35.92234373 202.75626087 C-35.92376554 199.03709376 -35.92803574 195.31794126 -35.93333817 191.59877777 C-35.95088694 179.28926943 -35.96017809 166.97979624 -35.95867722 154.67027524 C-35.9585973 154.00720789 -35.95851739 153.34414053 -35.95843506 152.66098022 C-35.9583533 151.99709863 -35.95827154 151.33321703 -35.9581873 150.64921781 C-35.95737482 139.89599464 -35.97650431 129.14291168 -36.00471179 118.38972905 C-36.03347847 107.33569824 -36.04688418 96.2817391 -36.04552424 85.22767043 C-36.04501475 79.02679019 -36.05069063 72.82606861 -36.07188034 66.62522125 C-36.09127298 60.79093637 -36.09137989 54.95696134 -36.07684708 49.12266541 C-36.07475911 46.98538001 -36.07945909 44.84807517 -36.09156799 42.71082306 C-36.10706819 39.78468813 -36.09768055 36.85961524 -36.08230591 33.9335022 C-36.09259303 33.09515091 -36.10288016 32.25679963 -36.11347902 31.39304376 C-36.01482226 22.84958877 -33.16198495 15.08482926 -27.29095459 8.79867554 C-19.02733499 1.3689992 -10.81052139 -0.03054141 0 0 Z " fill="#D32F2F" transform="translate(83.58782958984375,63.732574462890625)"/>
<path d="M0 0 C7.79204064 -0.10187788 15.58390788 -0.17166589 23.37646484 -0.21972656 C26.0243166 -0.2397738 28.67212446 -0.26701884 31.31982422 -0.30175781 C35.13780588 -0.35057744 38.95519936 -0.37303881 42.7734375 -0.390625 C43.94675629 -0.41127014 45.12007507 -0.43191528 46.32894897 -0.45318604 C56.03876287 -0.45580434 64.22867877 1.53492168 71.46875 8.296875 C78.14887476 15.72680968 80.30327366 23.35149518 80.26742554 33.15814209 C80.27195665 34.07092871 80.27648776 34.98371533 80.28115618 35.92416215 C80.29379996 38.97781345 80.29217981 42.03128639 80.29052734 45.08496094 C80.29651264 47.27649159 80.30331819 49.46802013 80.31088257 51.6595459 C80.32855058 57.61009676 80.33323832 63.56059011 80.33451414 69.51116467 C80.33593595 73.23033178 80.34020615 76.94948428 80.34550858 80.66864777 C80.36305735 92.9781561 80.3723485 105.2876293 80.37084763 117.5971503 C80.37076772 118.26021765 80.3706878 118.92328501 80.37060547 119.60644531 C80.37052371 120.27032691 80.37044195 120.9342085 80.37035771 121.61820772 C80.36954523 132.37143089 80.38867472 143.12451385 80.4168822 153.87769648 C80.44564888 164.9317273 80.45905459 175.98568644 80.45769465 187.03975511 C80.45718516 193.24063535 80.46286104 199.44135693 80.48405075 205.64220428 C80.50344339 211.47648916 80.5035503 217.3104642 80.48901749 223.14476013 C80.48692952 225.28204553 80.4916295 227.41935037 80.5037384 229.55660248 C80.5192386 232.4827374 80.50985096 235.4078103 80.49447632 238.33392334 C80.50476344 239.17227463 80.51505057 240.01062591 80.52564943 240.87438178 C80.42699267 249.41783676 77.57415536 257.18259628 71.703125 263.46875 C59.81177226 274.16005796 48.80872024 272 32 272 C32 293.12 32 314.24 32 336 C28.49575698 334.59830279 26.16182394 333.60418992 23.18334961 331.57104492 C22.46327728 331.08315994 21.74320496 330.59527496 21.00131226 330.09260559 C20.22615265 329.56060043 19.45099304 329.02859528 18.65234375 328.48046875 C17.82352692 327.91772751 16.99471008 327.35498627 16.14077759 326.77519226 C14.34393907 325.55490996 12.5484569 324.3326286 10.75418091 323.10858154 C5.94498957 319.8285335 1.12520992 316.56414549 -3.6953125 313.30078125 C-4.69559982 312.62337891 -5.69588715 311.94597656 -6.72648621 311.24804688 C-19.79725337 302.41166237 -32.99013894 293.76043263 -46.18188477 285.10620117 C-47.08041168 284.51619827 -47.9789386 283.92619537 -48.9046936 283.3183136 C-50.58114952 282.21780316 -52.25840418 281.11850812 -53.93661499 280.02067566 C-54.67997101 279.53287125 -55.42332703 279.04506683 -56.18920898 278.54248047 C-56.832285 278.12143036 -57.47536102 277.70038025 -58.13792419 277.26657104 C-60 276 -60 276 -61.69190121 274.44407749 C-64.83693818 272.47636402 -67.09329436 272.62641494 -70.79165649 272.62818909 C-71.47405533 272.62436452 -72.15645417 272.62053996 -72.85953176 272.6165995 C-75.1456578 272.60731559 -77.43117801 272.61930498 -79.71728516 272.63110352 C-81.35680391 272.62863546 -82.99632109 272.624797 -84.63583374 272.61968994 C-88.16733678 272.61134861 -91.69867859 272.61216255 -95.23018265 272.61987495 C-100.82014673 272.63145862 -106.40990354 272.61929333 -111.99984741 272.60325623 C-125.8892491 272.56705736 -139.77864625 272.56082757 -153.66809082 272.56335449 C-164.45355271 272.56506767 -175.23884527 272.55787675 -186.02425992 272.52337593 C-191.57457845 272.50662232 -197.12448354 272.50834267 -202.67480016 272.52419865 C-206.13882767 272.53001791 -209.60266154 272.51921494 -213.06665421 272.50395203 C-214.66533823 272.50024248 -216.26405544 272.50328531 -217.86270905 272.51382256 C-229.78236365 272.58711099 -239.10419654 271.42760328 -248 263 C-246.82418467 259.47255402 -246.04019996 259.08209754 -243.00610352 257.10839844 C-242.15754288 256.55061707 -241.30898224 255.99283569 -240.43470764 255.41815186 C-239.50879318 254.82125549 -238.58287872 254.22435913 -237.62890625 253.609375 C-236.67741196 252.98653625 -235.72591766 252.36369751 -234.74559021 251.72198486 C-231.6895218 249.72359827 -228.62632227 247.73647383 -225.5625 245.75 C-222.53231559 243.77558775 -219.50365344 241.79886933 -216.47581482 239.82086182 C-214.5908368 238.5905264 -212.70426588 237.36262658 -210.81581116 236.13763428 C-209.93888107 235.56724426 -209.06195099 234.99685425 -208.15844727 234.40917969 C-207.40201431 233.9185907 -206.64558136 233.42800171 -205.8662262 232.92254639 C-203.0668742 231.13488835 -203.0668742 231.13488835 -201.01883507 229.2582283 C-193.44182013 223.0276598 -186.2409219 223.02844463 -176.87695312 223.16113281 C-175.26609972 223.1581511 -173.65524955 223.15204747 -172.04441833 223.14308167 C-168.59292132 223.13050406 -165.14243998 223.13975531 -161.69102478 223.16638947 C-156.22646813 223.20841618 -150.76263425 223.2010536 -145.29797363 223.18743896 C-136.65085445 223.17169928 -128.00416536 223.18884782 -119.35710001 223.2201097 C-103.87963617 223.27544656 -88.4021629 223.28392738 -72.9246192 223.26660609 C-67.49972244 223.26195537 -62.07522626 223.27460902 -56.65039825 223.30171156 C-53.26838054 223.31604773 -49.8864259 223.31826295 -46.50438118 223.31767082 C-44.9443753 223.32004112 -43.38436679 223.32755391 -41.82441521 223.34078407 C-29.64379232 223.44051949 -18.38726061 222.56161245 -9 214 C-2.7253568 205.97866811 -0.69540705 197.57834106 -0.7215271 187.5970459 C-0.7128385 186.38622841 -0.7128385 186.38622841 -0.70397437 185.15094995 C-0.68707437 182.46712835 -0.68410654 179.78347974 -0.68115234 177.09960938 C-0.67184726 175.1674152 -0.66167772 173.23522501 -0.65071106 171.30303955 C-0.62346249 166.07228362 -0.60827688 160.84155454 -0.59528303 155.61074638 C-0.57962999 150.13878177 -0.55284669 144.66687181 -0.5272522 139.19494629 C-0.4805029 128.83960447 -0.44374014 118.48425232 -0.41057932 108.12885904 C-0.37233075 96.33684469 -0.32292774 84.54488529 -0.27259517 72.75291729 C-0.16933255 48.50198561 -0.0800537 24.25101862 0 0 Z " fill="#B71C1C" transform="translate(384,112)"/>
<path d="M0 0 C5.47290193 2.80238954 10.37761768 6.6196935 14.84863281 10.81787109 C16.86259081 12.25641731 16.86259081 12.25641731 19.36035156 11.34521484 C21.81836338 9.98007879 23.79350638 8.52956795 25.92675781 6.70458984 C35.4706166 -0.92731059 46.31391852 -5.65537894 58.60644531 -5.42431641 C67.8303683 -4.35151002 76.00310899 -0.1779414 82.86425781 5.95458984 C83.46753906 6.45474609 84.07082031 6.95490234 84.69238281 7.47021484 C92.54046603 14.49936764 97.33114782 25.2872532 98.16503906 35.71630859 C98.23193268 58.12567099 89.93092598 71.773149 74.45410156 87.49755859 C73.04590075 88.9077166 71.63767868 90.31786143 70.2253418 91.72387695 C68.79586065 93.14796476 67.3718527 94.57737028 65.94824219 96.00732422 C60.74863134 101.19969831 55.46582008 106.19983724 49.86425781 110.95458984 C48.76978758 111.90428128 47.67600972 112.85477138 46.58300781 113.80615234 C43.68456872 116.31070671 40.76797373 118.79341985 37.84521484 121.26953125 C36.47434822 122.43562953 35.10844702 123.60758109 33.74658203 124.78417969 C31.6105183 126.62670909 29.4581285 128.44839806 27.30175781 130.26708984 C26.6353125 130.84861816 25.96886719 131.43014648 25.28222656 132.02929688 C20.63025301 135.9047596 20.63025301 135.9047596 17.28222656 136.12255859 C14.00084177 134.53752781 11.42629997 132.37034021 8.73925781 129.95458984 C7.58378965 128.94458013 6.42752734 127.93547827 5.27050781 126.92724609 C4.696875 126.42338379 4.12324219 125.91952148 3.53222656 125.40039062 C1.15048522 123.33588942 -1.30346807 121.36567639 -3.76074219 119.39208984 C-8.43634874 115.58762978 -12.90779123 111.59907331 -17.33496094 107.50927734 C-19.44460509 105.58499941 -21.57566199 103.7159373 -23.74121094 101.85693359 C-28.75751987 97.47704411 -33.51077233 92.83740266 -38.23632812 88.14916992 C-39.25173963 87.14530457 -40.27160906 86.14592827 -41.29589844 85.15112305 C-49.1774757 77.49505767 -55.80977568 69.78339113 -59.44824219 59.20458984 C-59.90650391 57.91294922 -59.90650391 57.91294922 -60.37402344 56.59521484 C-64.16594238 43.44989585 -63.29022159 29.54680152 -56.81542969 17.49755859 C-43.90160707 -3.21395474 -22.13920514 -10.19641375 0 0 Z " fill="#EBEEF0" transform="translate(198.1357421875,134.04541015625)"/>
</svg>
