<?xml version="1.0" encoding="UTF-8"?>
<svg version="1.1" xmlns="http://www.w3.org/2000/svg" width="512" height="512">
<path d="M0 0 C0.70832307 -0.0072672 1.41664613 -0.01453441 2.14643353 -0.02202183 C4.52644185 -0.04030947 6.90484617 -0.02290084 9.28484344 -0.00571251 C11.00564541 -0.01147226 12.72644123 -0.01941239 14.44722414 -0.02934873 C19.1808974 -0.05026554 23.91406814 -0.03988499 28.64774346 -0.02441764 C33.75076508 -0.0131278 38.85369889 -0.03055507 43.95670319 -0.04431725 C53.95545819 -0.0665795 63.95402581 -0.06173515 73.95278823 -0.04725404 C82.07716594 -0.03597355 90.20149104 -0.03442574 98.32587433 -0.03987312 C99.4810789 -0.04063929 100.63628347 -0.04140545 101.82649425 -0.04219484 C104.17308694 -0.04379342 106.51967961 -0.04541449 108.86627227 -0.04705779 C130.88320553 -0.06132405 152.90003479 -0.0449088 174.916951 -0.01805596 C193.81872734 0.00428359 212.72035015 0.0004037 231.62212372 -0.02264977 C253.55892513 -0.04939227 275.49563534 -0.05995067 297.43245077 -0.04458845 C299.77053164 -0.04299566 302.10861252 -0.04142381 304.44669342 -0.03987312 C305.5971489 -0.03910175 306.74760439 -0.03833037 307.93292215 -0.03753562 C316.04989035 -0.03321397 324.16680081 -0.04051518 332.28376007 -0.05227089 C342.17229579 -0.0662772 352.06063301 -0.06253528 361.94914591 -0.03586717 C366.99687544 -0.02270386 372.0442737 -0.01761941 377.09200096 -0.03411293 C381.70971761 -0.04897347 386.32679484 -0.04088898 390.94445318 -0.01422517 C392.61799562 -0.0086236 394.2915917 -0.01151804 395.96509987 -0.02360411 C398.23503083 -0.03874449 400.50275336 -0.02328768 402.77256775 0 C404.66577483 0.00121764 404.66577483 0.00121764 406.59722853 0.00245988 C410.79201448 0.80179717 412.27946614 2.3112288 414.88628387 5.6292057 C415.50152302 8.89939785 415.50152302 8.89939785 415.48755646 12.68433571 C415.49182858 13.38281173 415.49610071 14.08128776 415.50050229 14.80092973 C415.50872147 17.13537812 415.48126857 19.46801933 415.45391083 21.80230141 C415.45250011 23.47789403 415.4532928 25.15348975 415.45612335 26.82908058 C415.45755799 31.37436509 415.42816061 35.91898991 415.39325356 40.4641211 C415.36199801 45.21533823 415.35905996 49.96657046 415.35312653 54.71787453 C415.33758573 63.71350957 415.29655404 72.70884081 415.24637908 81.70434207 C415.19049299 91.94605818 415.16300096 102.1877888 415.1379019 112.42961943 C415.08563841 133.49632234 414.99668439 154.56273419 414.88628387 175.6292057 C408.94628387 174.6392057 403.00628387 173.6492057 396.88628387 172.6292057 C396.88628387 121.8092057 396.88628387 70.9892057 396.88628387 18.6292057 C267.85628387 18.6292057 138.82628387 18.6292057 5.88628387 18.6292057 C5.88628387 102.7792057 5.88628387 186.9292057 5.88628387 273.6292057 C43.50628387 273.6292057 81.12628387 273.6292057 119.88628387 273.6292057 C125.51128387 279.2542057 125.51128387 279.2542057 125.5457077 283.97027016 C125.5653508 285.0109716 125.5849939 286.05167305 125.60523224 287.1239109 C125.59933327 288.79135605 125.59933327 288.79135605 125.59331512 290.49248695 C125.60843643 291.63960655 125.62355774 292.78672615 125.63913727 293.96860695 C125.68206805 297.62650566 125.69085806 301.28357998 125.69878387 304.9417057 C125.72192379 307.42414958 125.74728806 309.90657379 125.77495575 312.38897133 C125.8378615 318.46905723 125.87275289 324.54882027 125.88628387 330.6292057 C126.30402069 330.18117592 126.72175751 329.73314613 127.15215302 329.27153969 C129.08308059 327.20206067 131.01592094 325.13437718 132.94878387 323.0667057 C133.60556122 322.36223305 134.26233856 321.65776039 134.93901825 320.93194008 C138.70752252 316.90353896 142.52659963 312.94294211 146.45212555 309.06714821 C148.1262539 307.38860249 149.67694008 305.63389385 151.19878387 303.8167057 C154.75102262 299.68972271 158.59642544 295.90345314 162.46831512 292.07842445 C165.18479764 289.32683392 167.70624388 286.45315044 170.22222137 283.5198307 C177.38812889 275.37828319 177.38812889 275.37828319 180.88628387 273.6292057 C182.41947747 273.536822 183.95666415 273.50727801 185.49263763 273.50895119 C186.9482032 273.50688919 186.9482032 273.50688919 188.43317413 273.50478554 C189.50131851 273.50838081 190.56946289 273.51197609 191.66997528 273.51568031 C193.35290428 273.51546127 193.35290428 273.51546127 195.06983185 273.51523781 C198.79252277 273.51593662 202.51516416 273.52372755 206.23784637 273.53154945 C208.81331607 273.53341375 211.38878611 273.5348376 213.96425629 273.53583717 C220.05928709 273.53927021 226.15429734 273.54715832 232.24932039 273.55718666 C239.18756359 273.56835514 246.12580764 273.57386011 253.06405759 273.5788821 C267.33814263 273.58934112 281.61221262 273.60693599 295.88628387 273.6292057 C296.39137596 275.87806808 296.89017567 278.12834439 297.38628387 280.3792057 C297.66472137 281.63217445 297.94315887 282.8851432 298.23003387 284.1760807 C298.88628387 287.6292057 298.88628387 287.6292057 298.88628387 291.6292057 C298.32159393 291.62698509 297.75690399 291.62476448 297.17510223 291.62247658 C283.4108737 291.571106 269.64724578 291.56456838 255.88297272 291.60585976 C249.22639516 291.62448241 242.57070672 291.62837755 235.91411591 291.59844398 C229.48818412 291.57009232 223.06337857 291.58064968 216.63750458 291.61800575 C214.18796267 291.62544322 211.73833689 291.61894101 209.28887177 291.59816933 C205.85263298 291.57142828 202.42003381 291.5945796 198.98394012 291.6292057 C197.97477036 291.60979424 196.96560059 291.59038277 195.92584991 291.57038307 C190.35040964 291.68491334 187.43365799 292.47373205 183.40361786 296.4495182 C182.20369503 297.8191529 181.02990753 299.21222337 179.88628387 300.6292057 C178.76347633 301.92277866 177.63879724 303.21473241 176.51128387 304.5042057 C175.9466745 305.16162758 175.38206512 305.81904945 174.80034637 306.4963932 C172.5817656 308.96852607 170.24921718 311.29482748 167.88628387 313.6292057 C164.30069689 317.17152769 160.93736726 320.80476231 157.66362762 324.63311195 C154.93529102 327.69724383 151.98960479 330.53402402 149.06987762 333.41436195 C147.10653716 335.40580031 145.26548718 337.44223148 143.44878387 339.5667057 C139.9493182 343.6507689 136.147184 347.38557818 132.31987762 351.1604557 C129.51734765 354.00347167 126.91486872 356.97085336 124.35894012 360.0354557 C121.62133036 362.99817396 119.98725231 363.61958966 115.94878387 364.0042057 C112.78697955 363.93446002 112.0645242 363.76631365 109.44878387 361.7542057 C106.75036313 358.08435349 106.7641224 355.88614226 106.77275848 351.34356117 C106.77261246 350.69953346 106.77246643 350.05550575 106.77231598 349.39196205 C106.77301347 347.26007168 106.78079821 345.12826834 106.78862762 342.9963932 C106.79049238 341.51951584 106.79191601 340.04263786 106.79291534 338.56575966 C106.79673595 334.67608372 106.80656236 330.78644504 106.81761932 326.89678383 C106.82784324 322.92869 106.83241507 318.96059016 106.83745575 314.99248695 C106.84818502 307.20470954 106.86525599 299.41696284 106.88628387 291.6292057 C106.30852109 291.63197108 105.7307583 291.63473646 105.13548756 291.63758564 C91.07210269 291.70386153 77.00874126 291.75349406 62.94523335 291.78464222 C56.14419506 291.80010593 49.34326107 291.82118582 42.54228973 291.85552406 C35.98060781 291.88863831 29.41900586 291.90605272 22.85723686 291.91383743 C20.35216502 291.91938612 17.8470992 291.93022115 15.34207344 291.94639587 C11.83690379 291.968131 8.33218375 291.9711742 4.8269577 291.96978188 C3.26897209 291.98596062 3.26897209 291.98596062 1.67951202 292.0024662 C-7.20686087 291.96419912 -7.20686087 291.96419912 -11.11371613 288.6292057 C-12.3197907 286.21705656 -12.24334184 284.70374071 -12.25073051 282.00859547 C-12.25580506 281.02886271 -12.2608796 280.04912995 -12.26610792 279.03970832 C-12.26660567 277.95558813 -12.26710343 276.87146794 -12.26761627 275.75449562 C-12.27199853 274.60883639 -12.27638078 273.46317715 -12.28089583 272.28280097 C-12.29197659 269.09312622 -12.29851327 265.90347918 -12.30307698 262.71378958 C-12.30902726 259.27742239 -12.32063846 255.84107336 -12.33136749 252.4047184 C-12.35590356 244.1014233 -12.37051982 235.79812218 -12.38342756 227.49480197 C-12.38713843 225.15052666 -12.39111174 222.80625195 -12.39518023 220.46197724 C-12.42041419 205.91147497 -12.44247226 191.36097179 -12.45490837 176.81045246 C-12.45783818 173.43924582 -12.46079982 170.06803922 -12.46381378 166.69683266 C-12.46455983 165.85891246 -12.46530588 165.02099227 -12.46607454 164.15768055 C-12.47873325 150.57818272 -12.51196259 136.99881568 -12.55361561 123.41937902 C-12.59600755 109.48510775 -12.61960017 95.5509035 -12.62482893 81.61656791 C-12.62824604 73.7898826 -12.64003628 65.96340172 -12.67293167 58.13677979 C-12.70089571 51.47244741 -12.71194767 44.80836136 -12.70073621 38.14397486 C-12.69554017 34.74272212 -12.69849625 31.34198551 -12.72320175 27.94080734 C-12.74574292 24.25505816 -12.73766664 20.5706206 -12.72171783 16.88486671 C-12.73559992 15.80743869 -12.74948201 14.73001067 -12.76378477 13.61993331 C-12.75321283 12.63237731 -12.74264088 11.6448213 -12.73174858 10.62733936 C-12.73310511 9.77671081 -12.73446164 8.92608225 -12.73585927 8.04967707 C-11.01557707 1.35685431 -6.27132766 0.00403349 0 0 Z " fill="#000000" transform="translate(46.11371612548828,67.37079429626465)"/>
<path d="M0 0 C1.45965703 1.22405376 2.89592465 2.47633579 4.3125 3.75 C5.19550781 4.52859375 6.07851563 5.3071875 6.98828125 6.109375 C19.65688298 17.95443001 29.4019347 34.73946899 30.47363281 52.40625 C30.86523072 78.92562486 26.0635139 98.93507002 7.6875 118.875 C-7.60852152 133.48120095 -27.74375493 140.28636902 -48.64306641 140.10351562 C-69.28967793 139.52110063 -89.42980202 130.7802826 -103.6875 115.75 C-119.39566038 97.36865188 -125.24686942 76.55160719 -123.6875 52.75 C-121.82943846 36.58926437 -114.60660565 21.71859024 -103.6875 9.75 C-103.17058594 9.1415625 -102.65367187 8.533125 -102.12109375 7.90625 C-76.59961126 -20.23774072 -29.6571333 -21.96629589 0 0 Z M-69.6875 7.75 C-71.0796875 8.35134766 -71.0796875 8.35134766 -72.5 8.96484375 C-87.31908862 16.22703917 -97.76939698 28.71684534 -103.125 44.25 C-108.28868418 61.10722907 -105.78654733 76.62507671 -97.86645508 92.09155273 C-90.09174136 106.60002167 -76.71135908 115.55005785 -61.16796875 120.5625 C-46.33704555 124.104213 -30.67857456 121.87776479 -17.375 114.5625 C-2.67472922 105.27603862 7.86502952 92.03263154 11.91772461 74.94091797 C14.61057665 59.99617203 12.40994881 43.91729514 4.078125 31.125 C0.79179058 26.70444396 -2.82940553 22.67625869 -6.6875 18.75 C-7.53441406 17.88375 -7.53441406 17.88375 -8.3984375 17 C-20.39663842 5.7626606 -36.00061688 2.95129201 -51.80078125 3.40234375 C-58.19458712 3.74612325 -63.81583337 5.20507927 -69.6875 7.75 Z " fill="#000000" transform="translate(481.6875,270.25)"/>
<path d="M0 0 C0.85433052 -0.00445784 1.70866104 -0.00891569 2.58888036 -0.01350862 C3.53292641 -0.01332426 4.47697246 -0.01313989 5.44962597 -0.01294994 C6.44827732 -0.01662663 7.44692867 -0.02030332 8.47584218 -0.02409142 C11.84375141 -0.03516127 15.21162983 -0.03897767 18.57955456 -0.04278088 C20.98550039 -0.04904297 23.39144525 -0.05568954 25.79738903 -0.0626936 C33.03282689 -0.08194482 40.26826223 -0.09252493 47.50371793 -0.10142139 C50.9095691 -0.10580292 54.31541871 -0.11117006 57.72126865 -0.11641026 C69.04048146 -0.13342293 80.3596933 -0.14791778 91.67891693 -0.155159 C94.61698756 -0.15706894 97.55505818 -0.15898927 100.49312878 -0.16094494 C101.58851587 -0.16167055 101.58851587 -0.16167055 102.706032 -0.16241082 C114.53955208 -0.17071368 126.37297115 -0.1960547 138.2064471 -0.22852562 C150.35077988 -0.26157833 162.49506129 -0.27960611 174.63943928 -0.28280324 C181.46005464 -0.28496996 188.28052268 -0.2937421 195.10109425 -0.31926441 C201.51555111 -0.34321139 207.92981459 -0.34680832 214.34430981 -0.33650303 C216.7013916 -0.33600576 219.05848613 -0.34238201 221.4155283 -0.35605907 C224.62822524 -0.37366129 227.83995698 -0.36672893 231.05265331 -0.35352612 C231.9900072 -0.36449536 232.92736108 -0.37546461 233.89311963 -0.38676625 C238.11119621 -0.34478434 240.34624376 -0.23705968 243.99717522 2.03970528 C246.32263549 4.54464941 246.87620287 5.545511 247.2541151 8.94672108 C246.86997153 12.86498558 245.64905194 14.34715375 242.9416151 17.13422108 C240.66158685 18.2742352 239.41305039 18.26044898 236.8804369 18.26285553 C236.02548968 18.26607998 235.17054246 18.26930442 234.28968775 18.27262658 C233.34495958 18.27107798 232.40023141 18.26952937 231.42687511 18.26793385 C230.4275182 18.2701994 229.42816128 18.27246496 228.39852083 18.27479917 C225.02827118 18.28116184 221.65806152 18.28030835 218.28780651 18.27948475 C215.88023864 18.28247483 213.47267124 18.28587701 211.06510448 18.28966236 C205.19121156 18.29760055 199.31732811 18.30071769 193.44343092 18.30127474 C188.66996017 18.30174942 183.89649273 18.30380177 179.12302303 18.30697536 C165.59740584 18.31578509 152.07179659 18.32039428 138.54617651 18.31964489 C137.45172818 18.31958496 137.45172818 18.31958496 136.33516979 18.31952381 C135.60464942 18.31948293 134.87412904 18.31944205 134.12147169 18.31939993 C122.28084423 18.31899343 110.44024857 18.32856306 98.59963031 18.34266218 C86.44965208 18.35701581 74.29968936 18.36393291 62.14970243 18.3630684 C55.32525661 18.36273607 48.50084411 18.36549905 41.67640591 18.37624645 C35.25952548 18.38628701 28.84269733 18.38602646 22.42581272 18.37872982 C20.06670625 18.37768037 17.70759545 18.38006805 15.34849644 18.38609028 C12.13568768 18.39376244 8.9231255 18.38919711 5.71032238 18.38145924 C4.77005565 18.3866028 3.82978893 18.39174636 2.86102927 18.39704579 C1.5707852 18.3901476 1.5707852 18.3901476 0.25447559 18.38311005 C-0.85799764 18.3834361 -0.85799764 18.3834361 -1.99294508 18.38376874 C-4.39801883 18.0931863 -5.9924588 17.38368812 -8.0583849 16.13422108 C-10.36047979 12.91128822 -10.53349144 10.01425784 -10.0583849 6.13422108 C-7.09670825 1.69170611 -5.27744859 0.01274206 0 0 Z " fill="#000000" transform="translate(129.0583848953247,135.86577892303467)"/>
<path d="M0 0 C4.7368803 2.08422733 8.07098777 0.42442912 12.75 -1.25 C19.77992925 -3.37362446 26.63781167 -3.00442182 33.375 0 C41.31185593 4.52140563 46.32763847 11.23401478 48.875 19.9375 C50.03266885 31.22477127 47.10715066 38.74357623 40.125 47.375 C37.84717551 49.89635027 35.46316376 52.2953552 33.046875 54.68359375 C32.39422668 55.33578384 31.74157837 55.98797394 31.06915283 56.65992737 C29.7034253 58.02265872 28.33529351 59.38298451 26.96484375 60.7409668 C24.86131909 62.82606104 22.76608055 64.9192219 20.671875 67.01367188 C19.3390155 68.34162159 18.00569867 69.66911248 16.671875 70.99609375 C15.73127228 71.93502724 15.73127228 71.93502724 14.77166748 72.89292908 C9.42434259 78.18154664 9.42434259 78.18154664 4.53222656 78.90991211 C-0.4026951 78.82707087 -2.75374244 76.45589634 -6.1675415 73.11708069 C-6.90115906 72.35785812 -7.63477661 71.59863556 -8.390625 70.81640625 C-9.16887634 70.0386937 -9.94712769 69.26098114 -10.7489624 68.45970154 C-12.3888115 66.81216275 -14.01886865 65.15482728 -15.63964844 63.48852539 C-18.10810614 60.95484027 -20.60917083 58.45735711 -23.1171875 55.96289062 C-24.71039672 54.35360265 -26.30160997 52.74233571 -27.890625 51.12890625 C-28.63233948 50.38790176 -29.37405396 49.64689728 -30.13824463 48.88343811 C-36.52511454 42.26261878 -40.47482676 35.73827365 -40.3125 26.3125 C-40.00650204 17.40987183 -38.05947934 11.76810616 -31.97265625 5.203125 C-23.19381056 -2.44771259 -10.74082624 -5.13486869 0 0 Z M-20.875 20.375 C-22.50523814 23.63547629 -22.3423535 25.75301035 -21.875 29.375 C-20.65068346 31.22711713 -20.65068346 31.22711713 -18.96484375 32.9921875 C-18.32981934 33.68812012 -17.69479492 34.38405273 -17.04052734 35.10107422 C-13.07629738 39.26373915 -9.02211458 43.33076564 -4.9375 47.375 C-4.06287109 48.24511719 -3.18824219 49.11523438 -2.28710938 50.01171875 C-0.15202551 52.13513549 1.98537205 54.25616378 4.125 56.375 C9.83479423 51.61301632 15.16418015 46.55143797 20.4375 41.3125 C21.24767578 40.52294922 22.05785156 39.73339844 22.89257812 38.91992188 C23.66666016 38.15099609 24.44074219 37.38207031 25.23828125 36.58984375 C25.93735596 35.90011475 26.63643066 35.21038574 27.35668945 34.49975586 C30.04583237 31.26855182 31.125 28.57263761 31.125 24.375 C29.80610894 20.41832681 27.76965285 18.25254844 24.125 16.375 C21.23063145 15.54301552 19.00724882 15.46452218 16.125 16.375 C14.10938546 18.01997468 12.44457564 19.80462576 10.70703125 21.73828125 C9.125 23.375 9.125 23.375 6.625 24.5 C1.58532264 24.24801613 -1.95484423 22.38953072 -5.3125 18.6875 C-7.9789638 16.28117901 -8.49467577 15.97677744 -11.875 15.8125 C-15.88796 16.06283588 -18.05447489 17.46900444 -20.875 20.375 Z " fill="#000000" transform="translate(430.875,298.625)"/>
<path d="M0 0 C1.20273919 -0.01064158 1.20273919 -0.01064158 2.42977613 -0.02149814 C5.11402769 -0.03908723 7.79683297 -0.02096952 10.48106384 -0.00291443 C12.40632792 -0.00805287 14.33158729 -0.01533358 16.25683594 -0.02459717 C21.48409129 -0.04312764 26.71083727 -0.03016257 31.93807149 -0.01050687 C37.40548765 0.0058649 42.87287118 -0.0029311 48.34030151 -0.00802612 C57.52109425 -0.01254834 66.70168332 0.00333171 75.88243103 0.03126526 C86.5020255 0.06332719 97.12125282 0.0632981 107.7408734 0.04605049 C117.95137459 0.03019713 128.16174097 0.03691069 138.37223625 0.0539875 C142.72027098 0.06086647 147.06819791 0.0598169 151.41623116 0.05244255 C156.53401061 0.04479185 161.65137123 0.05686615 166.76907921 0.08429146 C168.64924501 0.09118878 170.52944983 0.09125889 172.40961456 0.08407593 C174.9723585 0.07541205 177.53380069 0.09128422 180.09643555 0.11352539 C181.2177814 0.10116424 181.2177814 0.10116424 182.3617807 0.08855337 C185.76654532 0.14325573 187.65693084 0.38348668 190.41915035 2.44551182 C192.63173672 5.53023156 192.91858517 7.85816451 192.98472595 11.62818909 C191.73418731 14.75453568 190.8431684 16.17664928 187.85383606 17.74903488 C184.27032497 18.84709621 180.91351002 18.90510079 177.20396423 18.88215637 C176.03903537 18.88683634 176.03903537 18.88683634 174.85057259 18.89161086 C172.25198368 18.89957902 169.65362905 18.89327184 167.05503845 18.88697815 C165.19051476 18.88968853 163.32599215 18.89324974 161.46147156 18.89759827 C156.3995832 18.90671885 151.33777633 18.90317935 146.27588654 18.8968401 C140.97977478 18.89177842 135.68367002 18.89647202 130.38755798 18.89961243 C121.49350226 18.90325158 112.59947975 18.8984543 103.70542908 18.88893127 C93.42108308 18.87804683 83.13681638 18.88157245 72.85247231 18.89258409 C64.02433404 18.9016584 55.19621965 18.90294152 46.36807823 18.89770675 C41.09463069 18.89458785 35.82122042 18.89417553 30.54777527 18.90077972 C25.59016963 18.90655463 20.63266629 18.90255357 15.67507172 18.89099121 C13.85497965 18.88834541 12.03487899 18.88910835 10.21479034 18.89351654 C7.731573 18.89897656 5.24868406 18.89213234 2.76548767 18.88215637 C2.0441823 18.88661782 1.32287693 18.89107926 0.57971382 18.8956759 C-4.33193164 18.85736872 -8.15900889 18.35643595 -11.82777405 14.94068909 C-13.55089434 11.58513905 -13.53735494 9.34801544 -13.01527405 5.62818909 C-9.23227056 0.62828088 -5.98682051 -0.0950694 0 0 Z " fill="#000000" transform="translate(132.01527404785156,272.37181091308594)"/>
<path d="M0 0 C1.18329391 -0.00571014 2.36658783 -0.01142029 3.58573914 -0.01730347 C4.88555222 -0.01842133 6.1853653 -0.01953918 7.52456665 -0.02069092 C8.90604281 -0.02531977 10.28751769 -0.03034452 11.66899109 -0.03573608 C15.42316118 -0.04885471 19.17731339 -0.05530387 22.93150282 -0.05974674 C25.27686396 -0.06267804 27.62222021 -0.06678294 29.96757889 -0.07125092 C37.30546082 -0.08492379 44.64333158 -0.09459175 51.98122537 -0.09845281 C60.45233143 -0.10293465 68.92327622 -0.12048919 77.39433324 -0.1494534 C83.94219175 -0.17106497 90.49000486 -0.18115679 97.03789866 -0.18249393 C100.94879456 -0.18354224 104.85953882 -0.18945565 108.77039719 -0.20731354 C112.44925048 -0.22378547 116.12783799 -0.22595415 119.80671501 -0.21717453 C121.79888209 -0.21603639 123.79104032 -0.22976013 125.78315735 -0.243927 C127.56655769 -0.23557327 127.56655769 -0.23557327 129.38598633 -0.22705078 C130.41726339 -0.22851734 131.44854046 -0.2299839 132.51106834 -0.2314949 C135.81735273 0.20630107 137.67450879 1.1280353 140.31997681 3.14044189 C141.86988822 6.77936435 142.60027536 9.01924768 141.63247681 12.89044189 C140.30818752 15.1606521 139.39019636 16.53298089 137.31997681 18.14044189 C134.70028114 18.52355194 134.70028114 18.52355194 131.48809814 18.53485107 C130.27114761 18.54620087 129.05419708 18.55755066 127.80036926 18.56924438 C126.44964534 18.56660097 125.09892202 18.56362972 123.74819946 18.56036377 C122.32730948 18.56770228 120.90642547 18.57628787 119.48554993 18.58602905 C115.62389214 18.60827894 111.76244751 18.61117396 107.90073442 18.60928154 C104.67756511 18.60916198 101.4544412 18.61772035 98.2312845 18.62605906 C90.62670332 18.64530625 83.02223192 18.64817244 75.41763306 18.64141846 C67.57231917 18.63477883 59.72747559 18.65763548 51.8822571 18.69473219 C45.1475394 18.72542243 38.41297302 18.7367899 31.67818677 18.73289537 C27.65542723 18.73082686 23.63303347 18.73632211 19.61034012 18.76078796 C15.82625451 18.78304135 12.04293339 18.78118997 8.25884438 18.76086044 C6.87091161 18.75744761 5.48292754 18.76255152 4.09506416 18.77684402 C-7.70152114 18.88993334 -7.70152114 18.88993334 -11.00927734 15.82073975 C-13.22401628 12.26773973 -13.34179847 10.25815471 -12.68002319 6.14044189 C-9.2048279 0.62806315 -6.24853846 0.01803676 0 0 Z " fill="#000000" transform="translate(131.68002319335938,203.85955810546875)"/>
</svg>
