<?xml version="1.0" encoding="UTF-8"?>
<svg version="1.1" xmlns="http://www.w3.org/2000/svg" width="512" height="512">
<path d="M0 0 C6.34159759 4.06675597 11.19438417 10.50021676 13.55477905 17.68981934 C15.72422073 28.94670704 13.55067192 39.91311875 10.3984375 50.71875 C10.00904142 52.11077824 9.62154913 53.50334017 9.23577881 54.89637756 C8.40658441 57.87567875 7.56477847 60.85099245 6.71246338 63.82376099 C5.33821137 68.61757008 3.99313259 73.41928881 2.65185547 78.22241211 C0.98906699 84.16984464 -0.68042502 90.11531465 -2.35855675 96.05843639 C-5.4347744 106.95519138 -8.45843921 117.86573407 -11.453125 128.78515625 C-11.78739313 130.00377161 -11.78739313 130.00377161 -12.12841415 131.24700546 C-13.03081535 134.53740966 -13.93290398 137.82789925 -14.83447075 141.11853218 C-17.12746727 149.48741306 -19.42948954 157.85380306 -21.73226547 166.21999741 C-22.89439881 170.4423188 -24.05607218 174.66476674 -25.21777344 178.88720703 C-25.44770178 179.72289782 -25.67763012 180.5585886 -25.91452599 181.41960335 C-28.4463762 190.62197593 -30.9771704 199.82463888 -33.5078125 209.02734375 C-33.73445461 209.85152864 -33.96109673 210.67571354 -34.19460678 211.52487373 C-35.33875589 215.68559535 -36.48288869 219.84632145 -37.62701416 224.00704956 C-39.68870824 231.5045783 -41.75054704 239.00206724 -43.81237411 246.4995594 C-44.95825526 250.66637133 -46.10412717 254.83318579 -47.25 259 C-47.70833329 260.66666668 -48.16666662 262.33333335 -48.625 264 C-48.9653125 265.2375 -48.9653125 265.2375 -49.3125 266.5 C-50 269 -50.6875 271.5 -51.375 274 C-51.60187689 274.82500692 -51.82875378 275.65001385 -52.06250572 276.50002098 C-52.52081986 278.16661774 -52.97913412 279.83321447 -53.4374485 281.49981117 C-54.58357644 285.6675471 -55.72970232 289.83528359 -56.87582397 294.00302124 C-58.93480389 301.49025364 -60.99379784 308.97748217 -63.0528698 316.46468925 C-64.19411098 320.61447751 -65.33533994 324.76426912 -66.4765625 328.9140625 C-66.70270863 329.73638996 -66.92885475 330.55871742 -67.16185379 331.4059639 C-69.72382304 340.72204087 -72.28551887 350.03819293 -74.84667969 359.35449219 C-75.08289882 360.21372945 -75.31911795 361.07296671 -75.56249523 361.95824146 C-76.75441272 366.29383977 -77.94623324 370.6294647 -79.13789368 374.96513367 C-81.4676533 383.44105518 -83.79915858 391.91648967 -86.13452148 400.39086914 C-87.03385381 403.65506596 -87.93300546 406.91931249 -88.83203125 410.18359375 C-89.16073747 411.37695815 -89.16073747 411.37695815 -89.49608421 412.59443092 C-92.42109115 423.21715582 -95.31792674 433.84712531 -98.19031525 444.48419189 C-99.29325252 448.56365342 -100.40221751 452.64148044 -101.51158905 456.71919632 C-102.36272695 459.85013042 -103.20806094 462.98245637 -104.04534912 466.11712646 C-104.94808444 469.49640159 -105.86502066 472.87152228 -106.78515625 476.24609375 C-107.03939865 477.21402359 -107.29364105 478.18195343 -107.55558777 479.17921448 C-109.90909154 487.70966371 -113.23761195 495.08291046 -120 501 C-120.763125 501.70125 -121.52625 502.4025 -122.3125 503.125 C-130.57235155 508.88768713 -140.22816996 509.39892912 -150 508 C-158.15959242 505.53041161 -164.37627029 501.13939725 -169 494 C-174.81348716 482.2594723 -178.9128681 469.61803437 -183.39593506 457.3343811 C-185.49419644 451.58631772 -187.60308419 445.84216288 -189.71235275 440.09813118 C-190.19132274 438.79369731 -190.67016604 437.48921692 -191.14888382 436.18469048 C-195.6673731 423.8724867 -200.25524248 411.58704697 -204.875 399.3125 C-211.84250385 380.78956381 -218.74729279 362.24391192 -225.625 343.6875 C-226.11727552 342.35943472 -226.60955455 341.03137075 -227.10183716 339.70330811 C-229.02845261 334.5056394 -230.95494571 329.30792537 -232.88124084 324.11013794 C-237.00581736 312.98120916 -241.13649393 301.85455588 -245.27386475 290.7303772 C-245.95871884 288.88881312 -246.64333528 287.04716065 -247.32769775 285.20541382 C-248.25561278 282.70832871 -249.18431983 280.21153973 -250.11328125 277.71484375 C-250.37985031 276.99709778 -250.64641937 276.27935181 -250.92106628 275.53985596 C-251.60941653 273.6915073 -252.30439515 271.84563071 -253 270 C-253.2617955 269.14807571 -253.523591 268.29615143 -253.7933197 267.41841125 C-255.32770703 264.34321429 -256.44789392 263.9380658 -259.63769531 262.77441406 C-260.61202011 262.40856705 -261.58634491 262.04272003 -262.5901947 261.66578674 C-264.1929702 261.09645668 -264.1929702 261.09645668 -265.828125 260.515625 C-267.5005703 259.89644447 -267.5005703 259.89644447 -269.20680237 259.26475525 C-272.24776233 258.1427939 -275.29417779 257.03753869 -278.34375381 255.9392662 C-281.54369827 254.78222071 -284.73570084 253.60367856 -287.9284668 252.42700195 C-293.13060357 250.51248672 -298.33679118 248.60945262 -303.54638672 246.71533203 C-310.18656641 244.30050108 -316.81658608 241.8589808 -323.44140625 239.40234375 C-324.87870842 238.86949516 -324.87870842 238.86949516 -326.345047 238.32588196 C-328.23516672 237.62513156 -330.12526813 236.92433179 -332.01535034 236.22348022 C-336.68804371 234.49285494 -341.36371449 232.77031261 -346.0390625 231.046875 C-361.36797161 225.39376794 -376.67706178 219.68742385 -391.98710632 213.98347473 C-399.22064346 211.28898557 -406.45671006 208.60133764 -413.69325256 205.91493225 C-420.84520119 203.2592412 -427.99371372 200.59440744 -435.14097595 197.9261322 C-440.41768659 195.95770776 -445.69951226 194.00379467 -450.98544312 192.06027222 C-454.3946139 190.80450818 -457.80022892 189.53929833 -461.20513916 188.27203369 C-462.7922687 187.68369049 -464.38089255 187.09935948 -465.97113037 186.51947021 C-479.3188679 181.64875338 -489.96300516 176.953775 -496.63671875 163.765625 C-498.30147337 159.7363818 -498.49857204 156.0089576 -498.4375 151.6875 C-498.43065186 150.94201904 -498.42380371 150.19653809 -498.41674805 149.4284668 C-498.15894876 140.53487412 -495.53952554 133.25519834 -489 127 C-482.65893646 122.59558467 -476.42640263 119.82198668 -469 117.84765625 C-467.9905835 117.56600113 -466.98116699 117.28434601 -465.94116211 116.99415588 C-462.97509089 116.17002963 -460.00545348 115.36021805 -457.03436279 114.55442047 C-453.2915636 113.53440354 -449.55449162 112.49367346 -445.81640625 111.45654297 C-435.86896523 108.70082657 -425.91391862 105.97312354 -415.95816422 103.24762344 C-410.91334746 101.86604892 -405.86916743 100.48215374 -400.82495117 99.09838867 C-394.60787276 97.39299517 -388.39075543 95.68774457 -382.17338562 93.9834137 C-363.36622298 88.82786311 -344.56279278 83.65879679 -325.76038742 78.48592758 C-319.18866543 76.67800994 -312.6168085 74.87058284 -306.04497719 73.06306267 C-303.59168089 72.38829844 -301.13839217 71.71350668 -298.68510437 71.03871155 C-288.0442714 68.11193414 -277.40308612 65.1864403 -266.76170731 62.26164818 C-230.79283258 52.37545017 -194.82743141 42.47674477 -158.86748123 32.55812836 C-155.95504174 31.75483825 -153.04257219 30.95165717 -150.13009644 30.14849854 C-145.56965367 28.89084823 -141.00931124 27.63283477 -136.4490509 26.37452316 C-134.77199621 25.9118161 -133.09491359 25.44921024 -131.4178009 24.98671341 C-129.11560704 24.35180179 -126.81352602 23.71648261 -124.51147461 23.08105469 C-123.84861167 22.89833574 -123.18574873 22.7156168 -122.50279903 22.52736092 C-119.38628541 21.66666364 -116.2756041 20.79067922 -113.16944885 19.89312744 C-108.98538695 18.71408948 -106.33932601 18.51785267 -102 19 C-101.154375 19.9075 -100.30875 20.815 -99.4375 21.75 C-98.07924737 23.25656011 -98.07924737 23.25656011 -96 24 C-93.23740728 23.76261287 -90.91089063 23.40639261 -88.25 22.75 C-87.57509521 22.59885742 -86.90019043 22.44771484 -86.20483398 22.29199219 C-83.9703636 21.72180985 -83.9703636 21.72180985 -81 20 C-79.65635099 16.55780328 -79.65635099 16.55780328 -79 13 C-76.02341748 9.28245729 -71.98715823 8.59475546 -67.5625 7.40625 C-66.7271875 7.17345337 -65.891875 6.94065674 -65.03125 6.70080566 C-62.35666587 5.95779643 -59.67850079 5.22874873 -57 4.5 C-55.22761213 4.01002689 -53.4554736 3.51915084 -51.68359375 3.02734375 C-48.2861017 2.0857241 -44.88629346 1.15335504 -41.48413086 0.22875977 C-38.84150807 -0.49053422 -36.2100654 -1.23015086 -33.58032227 -1.99633789 C-22.4381411 -5.2291777 -10.33431225 -6.13539874 0 0 Z " fill="#2B51CD" transform="translate(498,4)"/>
<path d="M0 0 C6.34159759 4.06675597 11.19438417 10.50021676 13.55477905 17.68981934 C15.72422073 28.94670704 13.55067192 39.91311875 10.3984375 50.71875 C10.00904142 52.11077824 9.62154913 53.50334017 9.23577881 54.89637756 C8.40658441 57.87567875 7.56477847 60.85099245 6.71246338 63.82376099 C5.33821137 68.61757008 3.99313259 73.41928881 2.65185547 78.22241211 C0.98906699 84.16984464 -0.68042502 90.11531465 -2.35855675 96.05843639 C-5.4347744 106.95519138 -8.45843921 117.86573407 -11.453125 128.78515625 C-11.78739313 130.00377161 -11.78739313 130.00377161 -12.12841415 131.24700546 C-13.03081535 134.53740966 -13.93290398 137.82789925 -14.83447075 141.11853218 C-17.12746727 149.48741306 -19.42948954 157.85380306 -21.73226547 166.21999741 C-22.89439881 170.4423188 -24.05607218 174.66476674 -25.21777344 178.88720703 C-25.44770178 179.72289782 -25.67763012 180.5585886 -25.91452599 181.41960335 C-28.4463762 190.62197593 -30.9771704 199.82463888 -33.5078125 209.02734375 C-33.73445461 209.85152864 -33.96109673 210.67571354 -34.19460678 211.52487373 C-35.33875589 215.68559535 -36.48288869 219.84632145 -37.62701416 224.00704956 C-39.68870824 231.5045783 -41.75054704 239.00206724 -43.81237411 246.4995594 C-44.95825526 250.66637133 -46.10412717 254.83318579 -47.25 259 C-47.70833329 260.66666668 -48.16666662 262.33333335 -48.625 264 C-48.9653125 265.2375 -48.9653125 265.2375 -49.3125 266.5 C-50 269 -50.6875 271.5 -51.375 274 C-51.60187689 274.82500692 -51.82875378 275.65001385 -52.06250572 276.50002098 C-52.52081986 278.16661774 -52.97913412 279.83321447 -53.4374485 281.49981117 C-54.58357644 285.6675471 -55.72970232 289.83528359 -56.87582397 294.00302124 C-58.93480389 301.49025364 -60.99379784 308.97748217 -63.0528698 316.46468925 C-64.19411098 320.61447751 -65.33533994 324.76426912 -66.4765625 328.9140625 C-66.70270863 329.73638996 -66.92885475 330.55871742 -67.16185379 331.4059639 C-69.72382304 340.72204087 -72.28551887 350.03819293 -74.84667969 359.35449219 C-75.08289882 360.21372945 -75.31911795 361.07296671 -75.56249523 361.95824146 C-76.75441272 366.29383977 -77.94623324 370.6294647 -79.13789368 374.96513367 C-81.4676533 383.44105518 -83.79915858 391.91648967 -86.13452148 400.39086914 C-87.03385381 403.65506596 -87.93300546 406.91931249 -88.83203125 410.18359375 C-89.16073747 411.37695815 -89.16073747 411.37695815 -89.49608421 412.59443092 C-92.42109115 423.21715582 -95.31792674 433.84712531 -98.19031525 444.48419189 C-99.29325252 448.56365342 -100.40221751 452.64148044 -101.51158905 456.71919632 C-102.36272695 459.85013042 -103.20806094 462.98245637 -104.04534912 466.11712646 C-104.94808444 469.49640159 -105.86502066 472.87152228 -106.78515625 476.24609375 C-107.03939865 477.21402359 -107.29364105 478.18195343 -107.55558777 479.17921448 C-109.90909154 487.70966371 -113.23761195 495.08291046 -120 501 C-120.763125 501.70125 -121.52625 502.4025 -122.3125 503.125 C-130.57235155 508.88768713 -140.22816996 509.39892912 -150 508 C-158.15959242 505.53041161 -164.37627029 501.13939725 -169 494 C-174.81348716 482.2594723 -178.9128681 469.61803437 -183.39593506 457.3343811 C-185.49419644 451.58631772 -187.60308419 445.84216288 -189.71235275 440.09813118 C-190.19132274 438.79369731 -190.67016604 437.48921692 -191.14888382 436.18469048 C-195.6673731 423.8724867 -200.25524248 411.58704697 -204.875 399.3125 C-211.84250385 380.78956381 -218.74729279 362.24391192 -225.625 343.6875 C-226.11727552 342.35943472 -226.60955455 341.03137075 -227.10183716 339.70330811 C-229.02845261 334.5056394 -230.95494571 329.30792537 -232.88124084 324.11013794 C-237.00581736 312.98120916 -241.13649393 301.85455588 -245.27386475 290.7303772 C-245.95871884 288.88881312 -246.64333528 287.04716065 -247.32769775 285.20541382 C-248.25561278 282.70832871 -249.18431983 280.21153973 -250.11328125 277.71484375 C-250.37985031 276.99709778 -250.64641937 276.27935181 -250.92106628 275.53985596 C-251.60941653 273.6915073 -252.30439515 271.84563071 -253 270 C-253.2617955 269.14807571 -253.523591 268.29615143 -253.7933197 267.41841125 C-255.32770703 264.34321429 -256.44789392 263.9380658 -259.63769531 262.77441406 C-260.61202011 262.40856705 -261.58634491 262.04272003 -262.5901947 261.66578674 C-264.1929702 261.09645668 -264.1929702 261.09645668 -265.828125 260.515625 C-267.5005703 259.89644447 -267.5005703 259.89644447 -269.20680237 259.26475525 C-272.24776233 258.1427939 -275.29417779 257.03753869 -278.34375381 255.9392662 C-281.54369827 254.78222071 -284.73570084 253.60367856 -287.9284668 252.42700195 C-293.13060357 250.51248672 -298.33679118 248.60945262 -303.54638672 246.71533203 C-310.18656641 244.30050108 -316.81658608 241.8589808 -323.44140625 239.40234375 C-324.87870842 238.86949516 -324.87870842 238.86949516 -326.345047 238.32588196 C-328.23516672 237.62513156 -330.12526813 236.92433179 -332.01535034 236.22348022 C-336.68804371 234.49285494 -341.36371449 232.77031261 -346.0390625 231.046875 C-361.36797161 225.39376794 -376.67706178 219.68742385 -391.98710632 213.98347473 C-399.22064346 211.28898557 -406.45671006 208.60133764 -413.69325256 205.91493225 C-420.84520119 203.2592412 -427.99371372 200.59440744 -435.14097595 197.9261322 C-440.41768659 195.95770776 -445.69951226 194.00379467 -450.98544312 192.06027222 C-454.3946139 190.80450818 -457.80022892 189.53929833 -461.20513916 188.27203369 C-462.7922687 187.68369049 -464.38089255 187.09935948 -465.97113037 186.51947021 C-479.3188679 181.64875338 -489.96300516 176.953775 -496.63671875 163.765625 C-498.30147337 159.7363818 -498.49857204 156.0089576 -498.4375 151.6875 C-498.43065186 150.94201904 -498.42380371 150.19653809 -498.41674805 149.4284668 C-498.15894876 140.53487412 -495.53952554 133.25519834 -489 127 C-482.65893646 122.59558467 -476.42640263 119.82198668 -469 117.84765625 C-467.9905835 117.56600113 -466.98116699 117.28434601 -465.94116211 116.99415588 C-462.97509089 116.17002963 -460.00545348 115.36021805 -457.03436279 114.55442047 C-453.2915636 113.53440354 -449.55449162 112.49367346 -445.81640625 111.45654297 C-435.86896523 108.70082657 -425.91391862 105.97312354 -415.95816422 103.24762344 C-410.91334746 101.86604892 -405.86916743 100.48215374 -400.82495117 99.09838867 C-394.60787276 97.39299517 -388.39075543 95.68774457 -382.17338562 93.9834137 C-363.36622298 88.82786311 -344.56279278 83.65879679 -325.76038742 78.48592758 C-319.18866543 76.67800994 -312.6168085 74.87058284 -306.04497719 73.06306267 C-303.59168089 72.38829844 -301.13839217 71.71350668 -298.68510437 71.03871155 C-288.0442714 68.11193414 -277.40308612 65.1864403 -266.76170731 62.26164818 C-230.79283258 52.37545017 -194.82743141 42.47674477 -158.86748123 32.55812836 C-155.95504174 31.75483825 -153.04257219 30.95165717 -150.13009644 30.14849854 C-145.56965367 28.89084823 -141.00931124 27.63283477 -136.4490509 26.37452316 C-134.77199621 25.9118161 -133.09491359 25.44921024 -131.4178009 24.98671341 C-129.11560704 24.35180179 -126.81352602 23.71648261 -124.51147461 23.08105469 C-123.84861167 22.89833574 -123.18574873 22.7156168 -122.50279903 22.52736092 C-119.38670666 21.66677998 -116.2767765 20.79048296 -113.17164612 19.89093018 C-108.02667624 18.44568416 -103.94379642 18.02810179 -99 20.5 C-96.73919279 23.32600901 -96.40742021 25.30676347 -96.3359375 28.90234375 C-97.43426857 32.37177777 -99.14000592 33.75132966 -102 36 C-105.45441077 37.45961552 -109.00443877 38.41434754 -112.625 39.375 C-113.67751953 39.66826172 -114.73003906 39.96152344 -115.81445312 40.26367188 C-124.82101816 42.74988671 -133.87495712 45.06509731 -142.92822266 47.37451172 C-151.321256 49.52586394 -159.62905118 51.90150333 -167.93261719 54.37280273 C-176.63566257 56.94219802 -185.40660257 59.20178488 -194.19946289 61.44091797 C-201.81196153 63.39362964 -209.33276621 65.54924723 -216.84106445 67.86694336 C-223.50051263 69.9025915 -230.21995936 71.59961422 -236.98510742 73.24438477 C-242.67844592 74.6382458 -248.25390888 76.26728513 -253.83984375 78.046875 C-257.96005946 79.28956058 -262.1284138 80.28402747 -266.31030273 81.29589844 C-272.36596936 82.78847742 -278.33446113 84.53708569 -284.3125 86.3125 C-294.31098347 89.27851892 -304.36208615 91.97012473 -314.47583008 94.51489258 C-319.85008267 95.87746599 -325.16548007 97.33123427 -330.45703125 98.98828125 C-338.19542547 101.41026573 -346.03411392 103.37453504 -353.89453125 105.35546875 C-360.58297447 107.06036604 -367.17188337 108.95565287 -373.75830078 111.01806641 C-379.19017635 112.66341989 -384.6867057 114.04381086 -390.1875 115.4375 C-400.12196746 117.98389203 -410.02135225 120.61989906 -419.890625 123.40722656 C-422.09188042 124.0258201 -424.29551803 124.6351974 -426.5 125.2421875 C-434.62224868 127.48002083 -442.72405011 129.7697301 -450.79248047 132.1953125 C-454.24115135 133.22384928 -457.68764771 134.18760859 -461.1875 135.02734375 C-468.97030947 136.90430825 -474.40162896 138.25669273 -479.375 144.8125 C-480.77514807 149.71301825 -480.72202823 154.17812776 -478.5 158.75 C-473.80781193 165.69556974 -463.20957538 167.86916185 -455.6875 170.5625 C-452.96113734 171.549054 -450.23641749 172.54011112 -447.51171875 173.53125 C-446.76832245 173.80127335 -446.02492615 174.07129669 -445.25900269 174.34950256 C-435.15039154 178.02702415 -425.07748305 181.80074168 -415 185.5625 C-410.58350212 187.21008816 -406.16679138 188.85710505 -401.75 190.50390625 C-400.58946609 190.93663345 -399.42893219 191.36936066 -398.23323059 191.81520081 C-384.33136753 196.99717348 -370.42249445 202.16026455 -356.5138855 207.32409668 C-334.74249515 215.40716812 -312.97159607 223.49156677 -291.20776367 231.5949707 C-289.06234629 232.39371624 -286.91684143 233.19222686 -284.77124023 233.99047852 C-282.77421884 234.73351541 -280.77735544 235.47697711 -278.78067017 236.22091675 C-276.94442806 236.90473379 -275.1076794 237.58719261 -273.27035522 238.26809692 C-269.47152192 239.68030917 -265.68733299 241.11058434 -261.93798828 242.64990234 C-260.78411621 243.11992676 -259.63024414 243.58995117 -258.44140625 244.07421875 C-257.49080322 244.47600342 -256.5402002 244.87778809 -255.56079102 245.29174805 C-252.35572599 246.17819038 -251.16605216 246.09741983 -248 245 C-245.3681986 242.95583003 -243.08149774 240.59455075 -240.75073242 238.21829224 C-240.03128291 237.50084929 -239.3118334 236.78340635 -238.57058239 236.04422271 C-236.15593423 233.63148374 -233.75588858 231.20472102 -231.35546875 228.77783203 C-229.62974975 227.04771175 -227.90313471 225.31848484 -226.1756897 223.59008789 C-222.45448558 219.86301085 -218.73943794 216.12995614 -215.0296936 212.39148331 C-209.66160248 206.98202005 -204.28153411 201.58459805 -198.89828098 196.19022797 C-190.1587968 187.43223016 -181.42755013 178.66606964 -172.70214844 169.89404297 C-172.1799393 169.3690472 -171.65773016 168.84405143 -171.1196965 168.30314671 C-170.59683818 167.77749733 -170.07397987 167.25184795 -169.53527737 166.71026981 C-162.12487651 159.26034618 -154.7125457 151.81235001 -147.29785156 144.36669922 C-146.77628097 143.84294693 -146.25471039 143.31919464 -145.71733463 142.77957107 C-137.02059285 134.04678248 -128.31978566 125.31805169 -119.61689091 116.59139526 C-114.24934947 111.20867374 -108.88600143 105.82183363 -103.52801728 100.42959832 C-99.42275869 96.29846532 -95.31262664 92.17220586 -91.20072556 88.04768372 C-89.51430028 86.3543098 -87.82962147 84.65919455 -86.14680862 82.96223068 C-83.85221034 80.6487614 -81.55153663 78.34150707 -79.24926758 76.03567505 C-78.58243548 75.36028879 -77.91560339 74.68490254 -77.22856426 73.98905003 C-69.77662493 66.55532499 -69.77662493 66.55532499 -64.5 65.5 C-60.65694692 66.26861062 -59.28405686 67.86757916 -57 71 C-56.16623619 74.51371891 -55.93105597 75.71064939 -57 79 C-64.10420639 88.79677281 -74.07122936 97.12515584 -82.65893555 105.59790039 C-84.3386699 107.25931873 -86.01808949 108.92105535 -87.69721985 110.58308411 C-90.37142139 113.22987621 -93.04588113 115.87640354 -95.72134721 118.52191746 C-102.3380242 125.06453089 -108.94534242 131.61649171 -115.54682922 138.17442322 C-116.02590342 138.65030451 -116.50497762 139.12618581 -116.99856921 139.61648775 C-120.93798723 143.52971171 -124.87701025 147.44333319 -128.81587051 151.35711856 C-132.35038982 154.86910577 -135.8852662 158.38073306 -139.4206543 161.8918457 C-139.92449392 162.39223441 -140.42833353 162.89262311 -140.94744102 163.4081751 C-149.13391481 171.53748538 -157.33814415 179.64866235 -165.54844453 187.75389928 C-173.9920907 196.09040235 -182.41473504 204.44770667 -190.81860763 212.82430452 C-195.53226267 217.52139942 -200.25606794 222.20752185 -205.00324059 226.87077522 C-209.46014865 231.24930871 -213.89087591 235.65268727 -218.3026104 240.07671928 C-219.92735235 241.69682879 -221.56158384 243.30748408 -223.20571518 244.90791321 C-225.44573933 247.09113339 -227.649435 249.3055197 -229.84721375 251.53114319 C-230.50836156 252.15956763 -231.16950938 252.78799207 -231.85069197 253.43545967 C-235.17253209 256.8226736 -235.17253209 256.8226736 -235.97525561 261.32371032 C-235.48270399 263.65102059 -234.83365845 265.7739223 -234 268 C-233.64376518 269.06314638 -233.64376518 269.06314638 -233.2803337 270.14777046 C-232.5997346 272.15951876 -231.85040344 274.13584602 -231.0859375 276.1171875 C-230.7996196 276.87458725 -230.5133017 277.631987 -230.2183075 278.41233826 C-229.59980855 280.04638686 -228.97854492 281.67939123 -228.35476685 283.31143188 C-227.35008494 285.94019045 -226.35268332 288.57161099 -225.35717773 291.20385742 C-224.30607713 293.98303002 -223.25459194 296.76204877 -222.20097351 299.54026794 C-218.78155563 308.5585786 -215.41367231 317.59571621 -212.05603027 326.63717651 C-211.04872936 329.34958082 -210.04060026 332.06167598 -209.03222656 334.77368164 C-207.67864223 338.41413927 -206.32530818 342.05468977 -204.97216797 345.6953125 C-203.09881982 350.73492971 -201.22355781 355.77383278 -199.34765625 360.8125 C-198.73299023 362.46370394 -198.11832553 364.11490837 -197.50366211 365.76611328 C-196.5633081 368.29218935 -195.62286524 370.81823217 -194.68215942 373.34417725 C-190.5158349 384.53189021 -186.36012901 395.7234938 -182.21469116 406.91896057 C-180.18491518 412.40061121 -178.15338862 417.88161273 -176.1215992 423.36251736 C-174.6798429 427.25219066 -173.23906345 431.14221989 -171.80059814 435.03311157 C-168.22671419 444.69872415 -164.62806837 454.35459612 -161 464 C-160.38753418 465.63935516 -160.38753418 465.63935516 -159.76269531 467.31182861 C-158.70034366 470.14221916 -157.62009224 472.96487119 -156.53125 475.78515625 C-156.23947876 476.5686998 -155.94770752 477.35224335 -155.64709473 478.15953064 C-153.84575783 482.7402832 -151.87388091 485.78211773 -148 489 C-143.23329499 490.58890167 -139.42641851 490.57605363 -134.75 488.6875 C-129.44791162 485.43394577 -128.08776502 482.12380084 -126.3125 476.25 C-125.93665771 475.03630737 -125.93665771 475.03630737 -125.55322266 473.7980957 C-122.70470584 464.37800061 -120.29560061 454.83342595 -117.8918457 445.29199219 C-116.02765431 437.9071264 -114.05453949 430.56962524 -111.9375 423.25317383 C-110.59618655 418.5987463 -109.32750522 413.92562702 -108.0625 409.25 C-106.22767343 402.49450217 -104.38055755 395.74291376 -102.5 389 C-100.64316386 382.33965836 -98.81538144 375.67175717 -97 369 C-94.98727833 361.60299245 -92.9531212 354.21248638 -90.89453125 346.828125 C-89.24185979 340.89113963 -87.61804143 334.9465076 -86 329 C-83.98727833 321.60299245 -81.9531212 314.21248638 -79.89453125 306.828125 C-78.24185941 300.89113825 -76.61825946 294.94644912 -75 289 C-71.56081037 276.3769446 -68.11802204 263.76106941 -64.41162109 251.21337891 C-61.67733918 241.95021174 -59.11621735 232.68437274 -56.84375 223.29736328 C-55.20700521 216.62067478 -53.25201472 210.06775731 -51.23022461 203.49902344 C-49.46493138 197.70564689 -47.92542007 191.88560546 -46.5 186 C-44.66228837 178.41202941 -42.526975 170.96073095 -40.23046875 163.5 C-38.46519104 157.70626802 -36.92549968 151.88593415 -35.5 146 C-33.66228837 138.41202941 -31.526975 130.96073095 -29.23046875 123.5 C-27.46519104 117.70626802 -25.92549968 111.88593415 -24.5 106 C-22.66228837 98.41202941 -20.526975 90.96073095 -18.23046875 83.5 C-16.21814426 76.89544784 -14.5260463 70.24230683 -12.90332031 63.53295898 C-11.1687751 56.455819 -9.12186521 49.49283779 -6.96679688 42.53320312 C-3.3026147 31.35784614 -3.3026147 31.35784614 -5.6875 20.25 C-8.06705365 16.90576244 -9.19485212 15.43750031 -13 14 C-19.07960591 13.44516955 -24.40302703 14.34079125 -30.1875 16.125 C-31.74971074 16.583019 -33.31222596 17.04000042 -34.875 17.49609375 C-35.69742187 17.73956543 -36.51984375 17.98303711 -37.3671875 18.23388672 C-42.12244987 19.61760457 -46.9066228 20.89567406 -51.6875 22.1875 C-53.50408188 22.68034269 -55.32049668 23.17380173 -57.13671875 23.66796875 C-57.97082275 23.89395752 -58.80492676 24.11994629 -59.66430664 24.3527832 C-61.75759486 24.93282993 -63.83492723 25.55135473 -65.9140625 26.1796875 C-69.73739774 27.19601712 -72.19588736 27.07663565 -76 26 C-79.18639792 23.22211464 -79.91137036 21.63148617 -80.5 17.4375 C-79.89605214 13.28535846 -79.26398509 12.54806759 -76 10 C-73.22343707 8.83841095 -70.37173375 8.07565991 -67.46484375 7.30859375 C-66.6309462 7.07721207 -65.79704865 6.84583038 -64.93788147 6.60743713 C-62.27436106 5.87153002 -59.60622211 5.1542866 -56.9375 4.4375 C-55.16958538 3.95239654 -53.4020031 3.46608017 -51.63476562 2.97851562 C-48.2485788 2.04613913 -44.85974044 1.12466974 -41.46801758 0.21264648 C-38.83131551 -0.49765538 -36.20742508 -1.23019743 -33.5847168 -1.99194336 C-22.43973297 -5.22696285 -10.3384473 -6.13785369 0 0 Z " fill="#161618" transform="translate(498,4)"/>
</svg>
